<mxfile host="65bd71144e">
    <diagram id="C5RBs43oDa-KdzZeNtuy" name="Page-1">
        <mxGraphModel dx="871" dy="679" grid="1" gridSize="10" guides="1" tooltips="1" connect="1" arrows="1" fold="1" page="1" pageScale="1" pageWidth="827" pageHeight="1169" math="0" shadow="0">
            <root>
                <mxCell id="WIyWlLk6GJQsqaUBKTNV-0"/>
                <mxCell id="WIyWlLk6GJQsqaUBKTNV-1" parent="WIyWlLk6GJQsqaUBKTNV-0"/>
                <mxCell id="zkfFHV4jXpPFQw0GAbJ--0" value="Disciplina" style="swimlane;fontStyle=2;align=center;verticalAlign=top;childLayout=stackLayout;horizontal=1;startSize=26;horizontalStack=0;resizeParent=1;resizeLast=0;collapsible=1;marginBottom=0;rounded=0;shadow=0;strokeWidth=1;" parent="WIyWlLk6GJQsqaUBKTNV-1" vertex="1">
                    <mxGeometry x="260" y="70" width="386" height="480" as="geometry">
                        <mxRectangle x="230" y="140" width="160" height="26" as="alternateBounds"/>
                    </mxGeometry>
                </mxCell>
                <mxCell id="zkfFHV4jXpPFQw0GAbJ--1" value="private String nome;&#10;private String unidadeEscolar;&#10;private String anoEscolar;&#10;private String ementa;&#10;private String objetivos;&#10;private String metodologia;&#10;private String calculoMedia;&#10;private int cargaHoraria;&#10;private ArrayList&lt;Notas&gt; notas;&#10;private ArrayList&lt;Turma&gt; turmas;&#10;private ArrayList&lt;Professor&gt; professores;&#10;private ArrayList&lt;Prova&gt; provas;&#10;private ArrayList&lt;Trabalho&gt; trabalhos;&#10;private ArrayList&lt;PontoExtra&gt; pontosExtra;" style="text;align=left;verticalAlign=top;spacingLeft=4;spacingRight=4;overflow=hidden;rotatable=0;points=[[0,0.5],[1,0.5]];portConstraint=eastwest;" parent="zkfFHV4jXpPFQw0GAbJ--0" vertex="1">
                    <mxGeometry y="26" width="386" height="204" as="geometry"/>
                </mxCell>
                <mxCell id="zkfFHV4jXpPFQw0GAbJ--4" value="" style="line;html=1;strokeWidth=1;align=left;verticalAlign=middle;spacingTop=-1;spacingLeft=3;spacingRight=3;rotatable=0;labelPosition=right;points=[];portConstraint=eastwest;" parent="zkfFHV4jXpPFQw0GAbJ--0" vertex="1">
                    <mxGeometry y="230" width="386" height="8" as="geometry"/>
                </mxCell>
                <mxCell id="zkfFHV4jXpPFQw0GAbJ--5" value="public Disciplina(String nome, String unidadeEscolar, String anoEscolar)&#10;public void exibirPlanoDeEnsino()&#10;public void adicionarNota(Aluno aluno)&#10;public void removerNota(Aluno aluno)&#10;public void adicionarTurma(Turma turma)&#10;public void removerTurma(Turma turma)&#10;public double mediaTurma(Turma turma)&#10;public double mediaGeral()&#10;public void adicionarProfessor(Professor professor)&#10;public void removerProfessor(Professor professor)&#10;public void adicionarProva(Prova prova)&#10;public void removerProva(Prova prova)&#10;public void adicionarTrabalho(Trabalho trabalho)&#10;public void removerTrabalho(Trabalho trabalho)&#10;public void adicionarPontoExtra(PontoExtra pontoExtra)&#10;public void removerPontoExtra(PontoExtra pontoExtra)" style="text;align=left;verticalAlign=top;spacingLeft=4;spacingRight=4;overflow=hidden;rotatable=0;points=[[0,0.5],[1,0.5]];portConstraint=eastwest;" parent="zkfFHV4jXpPFQw0GAbJ--0" vertex="1">
                    <mxGeometry y="238" width="386" height="242" as="geometry"/>
                </mxCell>
            </root>
        </mxGraphModel>
    </diagram>
</mxfile>